<svg xmlns="http://www.w3.org/2000/svg" viewBox="0 0 32 32"><path d="M20.33 5.33h-4.7v-2.7c0-.3-.25-.53-.56-.53s-.56.23-.56.53v2.7h-4.1c-3.38 0-6.12 2.75-6.12 6.13s2.75 6.12 6.13 6.12h4.1v6.67h-4.1c-.3 0-.56.24-.56.54s.25.53.56.53h4.1v2.7c0 .3.25.53.56.53s.56-.23.56-.53v-2.7h4.7c3.38 0 6.13-2.75 6.13-6.13s-2.75-6.12-6.13-6.12zm-9.36 10.9v-5.56h4.7c1.9 0 3.44 1.54 3.44 3.44s-1.54 3.44-3.44 3.44h-4.7zm5.26 1.3h-5.25c-1.9 0-3.44-1.54-3.44-3.44s1.54-3.44 3.44-3.44h5.25v5.56c-1.9 0-3.44-1.54-3.44-3.44z"/></svg>